<?xml version="1.0" encoding="UTF-8"?>
<svg id="Capa_2" data-name="Capa 2" xmlns="http://www.w3.org/2000/svg" viewBox="0 0 372.14 116.81">
  <defs>
    <style>
      .cls-1 {
        fill: #ea5d4c;
      }
    </style>
  </defs>
  <g id="Capa_1-2" data-name="Capa 1">
    <g>
      <path class="cls-1" d="m166.23,32.82c3.71-2.13,7.95-3.2,12.73-3.2v18.81h-4.73c-5.63,0-9.88,1.32-12.73,3.97-2.86,2.65-4.29,7.25-4.29,13.82v35.32h-17.92V30.64h17.92v11.01c2.3-3.75,5.31-6.7,9.02-8.83Z"/>
      <rect class="cls-1" x="190.99" y="30.64" width="17.92" height="70.9"/>
      <path class="cls-1" d="m222.8,46.77c2.86-5.54,6.74-9.81,11.65-12.8,4.9-2.98,10.39-4.48,16.44-4.48,5.29,0,9.92,1.07,13.88,3.2,3.97,2.13,7.14,4.82,9.53,8.06v-10.11h18.04v70.9h-18.04v-10.37c-2.3,3.33-5.48,6.08-9.53,8.25-4.05,2.18-8.72,3.26-14.01,3.26-5.97,0-11.41-1.54-16.32-4.61-4.91-3.07-8.79-7.4-11.65-12.99-2.86-5.59-4.29-12.01-4.29-19.26s1.43-13.52,4.29-19.07Zm48.95,8.13c-1.71-3.11-4.01-5.5-6.91-7.17-2.9-1.66-6.01-2.5-9.34-2.5s-6.4.81-9.21,2.43c-2.82,1.62-5.1,3.99-6.85,7.1-1.75,3.12-2.62,6.8-2.62,11.07s.87,8,2.62,11.2c1.75,3.2,4.05,5.65,6.91,7.36,2.86,1.71,5.91,2.56,9.15,2.56s6.44-.83,9.34-2.5c2.9-1.66,5.2-4.05,6.91-7.17,1.71-3.11,2.56-6.85,2.56-11.2s-.85-8.08-2.56-11.2Z"/>
      <path class="cls-1" d="m364.34,37.62c5.2,5.33,7.81,12.78,7.81,22.33v41.59h-17.92v-39.16c0-5.63-1.41-9.96-4.22-12.99-2.82-3.03-6.66-4.54-11.52-4.54s-8.85,1.52-11.71,4.54c-2.86,3.03-4.29,7.36-4.29,12.99v39.16h-17.92V30.64h17.92v8.83c2.39-3.07,5.44-5.48,9.15-7.23,3.71-1.75,7.78-2.62,12.22-2.62,8.45,0,15.27,2.67,20.48,8Z"/>
      <path class="cls-1" d="m26.39,23.35c.33-.68.53-1.14.77-1.57,3.73-6.61,7.48-13.2,11.16-19.84.59-1.06,1.28-1.4,2.44-1.41C57.52.36,74.29.07,91.05,0c6.62-.03,11.89,3.01,15.35,8.64,5.45,8.88,10.67,17.9,15.96,26.87,4.32,7.33,3.44,15.7-2.77,22.73-2.28,2.59-5.19,4.67-7.97,6.76-1.07.81-1.45,1.18-.67,2.46,3.55,5.87,6.83,11.91,10.5,17.7,4.78,7.54,3.54,13.64-1.49,19.74-5.88,7.13-13.51,10.93-22.76,11.07-22.18.34-44.35.53-66.53.83-1.13.02-1.75-.33-2.32-1.3-3.89-6.69-7.85-13.34-11.78-20-.18-.3-.32-.62-.62-1.19,1.61-.05,3.02-.12,4.43-.14,24.55-.3,49.1-.59,73.65-.89,1.03-.01,2.07.04,3.09-.05,2.59-.22,4.57-1.38,5.84-3.74,1.69-3.13,3.49-6.21,5.23-9.32,3.05-5.46-.38-11.25-6.63-11.18-13.67.16-27.33.35-41,.52-19.6.24-39.2.47-58.8.7-.5,0-1-.03-1.75-.05.28-.61.45-1.07.69-1.49,3.75-6.66,7.52-13.3,11.24-19.97.54-.96,1.12-1.37,2.28-1.38,23.21-.23,46.42-.51,69.63-.79,4.28-.05,8.56-.09,12.84-.18,2.68-.05,4.79-1.22,6.15-3.54,1.82-3.12,3.63-6.25,5.29-9.46,2.71-5.2-.79-10.84-6.67-10.78-24.34.26-48.69.55-73.03.83-.59,0-1.19-.04-2.02-.07Z"/>
      <rect class="cls-1" x="191.46" y="5.81" width="16.97" height="16.97" rx="4.5" ry="4.5" transform="translate(48.45 145.57) rotate(-45)"/>
    </g>
  </g>
</svg>